HIERARCHY
ROOT joint_Root
{
	OFFSET 0.0 0.0 0.0
	CHANNELS 6 Xposition Yposition Zposition Zrotation Xrotation Yrotation 
	JOINT Hips
	{
		OFFSET 4.5925 91.4895 -427.239
		CHANNELS 6 Xposition Yposition Zposition Zrotation Xrotation Yrotation 
		JOINT Spine
		{
			OFFSET 15.7357 0.0 0.0
			CHANNELS 6 Xposition Yposition Zposition Zrotation Xrotation Yrotation 
			JOINT Chest
			{
				OFFSET 8.98455 -0.406207 0.0
				CHANNELS 6 Xposition Yposition Zposition Zrotation Xrotation Yrotation 
				JOINT Neck
				{
					OFFSET 16.3773 0.0 0.0
					CHANNELS 6 Xposition Yposition Zposition Zrotation Xrotation Yrotation 
					JOINT Head
					{
						OFFSET 6.45672 0.0 0.0
						CHANNELS 6 Xposition Yposition Zposition Zrotation Xrotation Yrotation 
						End Site
						{
							OFFSET 0.0 0.0 0.0
						}
					}
				}
				JOINT Shoulder_L
				{
					OFFSET 12.9942 -0.242716 4.98039
					CHANNELS 6 Xposition Yposition Zposition Zrotation Xrotation Yrotation 
					JOINT UpperArm_L
					{
						OFFSET 5.34809 0.0 0.0
						CHANNELS 6 Xposition Yposition Zposition Zrotation Xrotation Yrotation 
						JOINT LowerArm_L
						{
							OFFSET 24.3286 1.87007e-05 0.0
							CHANNELS 6 Xposition Yposition Zposition Zrotation Xrotation Yrotation 
							JOINT Hand_L
							{
								OFFSET 22.2916 0.0 0.0
								CHANNELS 6 Xposition Yposition Zposition Zrotation Xrotation Yrotation 
								End Site
								{
									OFFSET 0.0 0.0 0.0
								}
							}
						}
					}
				}
				JOINT Shoulder_R
				{
					OFFSET 12.9945 -0.242716 -4.98039
					CHANNELS 6 Xposition Yposition Zposition Zrotation Xrotation Yrotation 
					JOINT UpperArm_R
					{
						OFFSET -5.34813 0.0 0.0
						CHANNELS 6 Xposition Yposition Zposition Zrotation Xrotation Yrotation 
						JOINT LowerArm_R
						{
							OFFSET -24.3289 0.000322201 0.0
							CHANNELS 6 Xposition Yposition Zposition Zrotation Xrotation Yrotation 
							JOINT Hand_R
							{
								OFFSET -22.2915 -0.000108084 0.0
								CHANNELS 6 Xposition Yposition Zposition Zrotation Xrotation Yrotation 
								End Site
								{
									OFFSET 0.0 0.0 0.0
								}
							}
						}
					}
				}
			}
		}
		JOINT UpperLeg_L
		{
			OFFSET -2.19248 -6.46944 0.0
			CHANNELS 6 Xposition Yposition Zposition Zrotation Xrotation Yrotation 
			JOINT LowerLeg_L
			{
				OFFSET 39.0811 0.0 -1.23785e-05
				CHANNELS 6 Xposition Yposition Zposition Zrotation Xrotation Yrotation 
				JOINT Foot_L
				{
					OFFSET 40.9854 0.0 -1.26872e-05
					CHANNELS 6 Xposition Yposition Zposition Zrotation Xrotation Yrotation 
					JOINT Toes_L
					{
						OFFSET 11.7543 0.0 0.0
						CHANNELS 6 Xposition Yposition Zposition Zrotation Xrotation Yrotation 
						End Site
						{
							OFFSET 0.0 0.0 0.0
						}
					}
				}
			}
		}
		JOINT UpperLeg_R
		{
			OFFSET -2.19251 6.46944 0.0
			CHANNELS 6 Xposition Yposition Zposition Zrotation Xrotation Yrotation 
			JOINT LowerLeg_R
			{
				OFFSET -39.0811 -0.00228153 -0.0401928
				CHANNELS 6 Xposition Yposition Zposition Zrotation Xrotation Yrotation 
				JOINT Foot_R
				{
					OFFSET -40.9854 0.0 0.0
					CHANNELS 6 Xposition Yposition Zposition Zrotation Xrotation Yrotation 
					JOINT Toes_R
					{
						OFFSET -11.7543 0.0 0.0
						CHANNELS 6 Xposition Yposition Zposition Zrotation Xrotation Yrotation 
						End Site
						{
							OFFSET 0.0 0.0 0.0
						}
					}
				}
			}
		}
	}
}
MOTION
Frames:	4
Frame Time:	0.0333333
0.000000 0.000000 0.000000 0.000000 0.000000 -0.000000 7.343470 89.621500 2.149530 90.662600 -7.145220 15.122500 15.735700 0.000005 -0.000001 94.366500 84.750000 -96.353700 8.984550 -0.406207 -0.000000 2.722330 0.886117 -3.991340 16.377300 -0.000001 -0.000001 31.767300 -2.781020 -2.372210 6.456720 -0.000001 -0.000000 18.046500 -3.196430 -8.366170 12.994200 -0.242716 4.980390 -87.314400 -7.406910 -70.005600 5.348090 -0.000007 -0.000001 -64.026400 -42.517300 -87.635400 24.328600 0.000019 0.000005 25.736600 9.596800 -70.922500 22.291600 -0.000001 0.000005 18.126400 5.285410 0.477510 12.994500 -0.242716 -4.980390 91.317700 -5.640100 -76.827200 -5.348130 -0.000001 -0.000004 -57.214700 -41.966600 -79.914400 -24.328900 0.000322 -0.000009 5.616070 1.940020 -71.008200 -22.291500 -0.000108 -0.000004 22.830500 5.431460 -3.989210 -2.192480 -6.469440 -0.000000 -179.064000 -18.132900 6.201980 39.081100 -0.000007 -0.000012 -0.064910 0.099791 33.042800 40.985400 -0.000006 -0.000013 4.571860 0.326597 -74.811100 11.754300 -0.000000 0.000003 -0.000225 -0.002044 -16.654400 -2.192510 6.469440 -0.000001 165.949000 14.586900 -174.945000 -39.081100 -0.002282 -0.040193 -0.004068 0.011043 33.690100 -40.985400 0.000008 0.000006 1.112610 12.550400 -72.577700 -11.754300 -0.000006 -0.000006 -0.003809 -0.049441 -18.584100
0.000000 0.000000 0.000000 0.000000 0.000000 -0.000000 7.307280 89.618100 2.191610 90.672000 -6.894110 15.099200 15.735700 0.000005 -0.000001 94.858700 84.792500 -96.854400 8.984550 -0.406207 -0.000000 2.631900 0.970718 -4.009720 16.377300 -0.000001 -0.000001 31.510100 -2.740530 -2.455400 6.456720 -0.000001 -0.000000 17.936000 -3.127380 -8.518190 12.994200 -0.242716 4.980390 -87.330700 -7.363310 -70.009400 5.348090 -0.000007 -0.000001 -63.929700 -42.506000 -87.601200 24.328600 0.000019 0.000005 25.709600 9.601880 -70.891900 22.291600 -0.000001 0.000005 18.037300 5.285500 0.475302 12.994500 -0.242716 -4.980390 91.325800 -5.668520 -76.812400 -5.348130 -0.000001 -0.000004 -57.436600 -41.982800 -80.168200 -24.328900 0.000322 -0.000009 5.604200 1.937710 -70.991700 -22.291500 -0.000108 -0.000004 22.821800 5.430010 -3.939420 -2.192480 -6.469440 -0.000000 -179.086000 -17.974600 6.192520 39.081100 -0.000007 -0.000012 -0.066446 0.102102 33.055600 40.985400 -0.000006 -0.000013 4.574860 0.414432 -74.832900 11.754300 -0.000000 0.000003 -0.000222 -0.002018 -16.653400 -2.192510 6.469440 -0.000001 165.931000 14.683700 -174.887000 -39.081100 -0.002282 -0.040193 -0.005179 0.012691 33.726300 -40.985400 0.000008 0.000006 1.029140 12.403200 -72.582100 -11.754300 -0.000006 -0.000006 -0.003767 -0.048997 -18.566100
0.000000 0.000000 0.000000 0.000000 0.000000 -0.000000 7.279650 89.610500 2.239660 90.694100 -6.703260 15.085800 15.735700 0.000005 -0.000001 95.240400 84.818400 -97.239500 8.984550 -0.406207 -0.000000 2.575480 1.036200 -4.017520 16.377300 -0.000001 -0.000001 31.306200 -2.675620 -2.472850 6.456720 -0.000001 -0.000000 17.700900 -3.078340 -8.748350 12.994200 -0.242716 4.980390 -87.357900 -7.255020 -69.927400 5.348090 -0.000007 -0.000001 -63.830600 -42.554300 -87.629200 24.328600 0.000019 0.000005 25.681900 9.610800 -70.853700 22.291600 -0.000001 0.000005 18.078600 5.285000 0.488999 12.994500 -0.242716 -4.980390 91.333600 -5.689470 -76.784300 -5.348130 -0.000001 -0.000004 -57.723500 -41.977900 -80.572400 -24.328900 0.000322 -0.000009 5.649780 1.957840 -70.953100 -22.291500 -0.000108 -0.000004 22.792700 5.430970 -3.972510 -2.192480 -6.469440 -0.000000 -179.118000 -17.849700 6.195080 39.081100 -0.000007 -0.000012 -0.066605 0.102283 33.072100 40.985400 -0.000006 -0.000013 4.576880 0.481829 -74.863300 11.754300 -0.000000 0.000003 -0.000210 -0.001930 -16.650300 -2.192510 6.469440 -0.000001 165.879000 14.791000 -174.820000 -39.081100 -0.002282 -0.040193 -0.005569 0.013269 33.741400 -40.985400 0.000008 0.000006 1.006740 12.330100 -72.646600 -11.754300 -0.000006 -0.000006 -0.003701 -0.048294 -18.537500
0.000000 0.000000 0.000000 0.000000 0.000000 -0.000000 7.254920 89.610000 2.288830 90.714800 -6.561100 15.037200 15.735700 0.000005 -0.000001 95.709100 84.830200 -97.708400 8.984550 -0.406207 -0.000000 2.545380 1.118720 -4.019610 16.377300 -0.000001 -0.000001 31.054300 -2.651070 -2.464700 6.456720 -0.000001 -0.000000 17.503100 -3.072390 -8.934390 12.994200 -0.242716 4.980390 -87.395000 -7.086760 -69.756900 5.348090 -0.000007 -0.000001 -63.891100 -42.546300 -87.879700 24.328600 0.000019 0.000005 25.756500 9.664530 -70.814700 22.291600 -0.000001 0.000005 18.068300 5.285350 0.479295 12.994500 -0.242716 -4.980390 91.346200 -5.683360 -76.650700 -5.348130 -0.000001 -0.000004 -58.048300 -41.963700 -81.100800 -24.328900 0.000322 -0.000009 5.659130 1.970310 -70.870200 -22.291500 -0.000108 -0.000004 22.853800 5.431150 -3.978670 -2.192480 -6.469440 -0.000000 -179.149000 -17.757700 6.180660 39.081100 -0.000007 -0.000012 -0.068343 0.105021 33.054600 40.985400 -0.000006 -0.000013 4.567070 0.528621 -74.877800 11.754300 -0.000000 0.000003 -0.000221 -0.002015 -16.653300 -2.192510 6.469440 -0.000001 165.832000 14.907000 -174.767000 -39.081100 -0.002282 -0.040193 -0.003999 0.010927 33.717500 -40.985400 0.000008 0.000006 1.099890 12.291900 -72.738900 -11.754300 -0.000006 -0.000006 -0.003795 -0.049288 -18.577900
